<mxfile host="app.diagrams.net" modified="2023-04-04T02:04:10.153Z" agent="Mozilla/5.0 (X11; Linux x86_64; rv:91.0) Gecko/20100101 Firefox/91.0" version="21.1.1" etag="K5vrASGYOwO7_jpe-fw7" type="github">
  <diagram name="第 1 页" id="DJTOShyC5tKYYjU_OgCt">
    <mxGraphModel>
      <root>
        <mxCell id="0" />
        <mxCell id="1" parent="0" />
      </root>
    </mxGraphModel>
  </diagram>
</mxfile>
